<?xml version="1.0" encoding="utf-8"?>
<!-- Generator: Adobe Illustrator 18.1.1, SVG Export Plug-In . SVG Version: 6.00 Build 0)  -->
<svg version="1.1" id="Layer_1" xmlns="http://www.w3.org/2000/svg" xmlns:xlink="http://www.w3.org/1999/xlink" x="0px" y="0px"
	 viewBox="0 0 1251 109.1" enable-background="new 0 0 1251 109.1" xml:space="preserve">
<rect width="1251" height="109.1"/>
<path fill="none" stroke="#FFFFFF" stroke-miterlimit="4.111" d="M15.4,92.2h55.4c33.9,0,55-14.2,55-38.5
	c0-24.3-20.9-38.5-55.7-38.5H15.4V92.2z M69,31.1c23.7,0,36.1,6.6,36.1,22.5c0,15.9-12.4,22.5-36.1,22.5H35.6v-45H69z"/>
<polygon fill="none" stroke="#FFFFFF" stroke-miterlimit="4.111" points="135.3,92.2 229.6,92.2 229.6,76.5 155.6,76.5 155.6,61.2 
	224.9,61.2 224.9,46 155.6,46 155.6,30.8 229.6,30.8 229.6,15.1 135.3,15.1 "/>
<path fill="none" stroke="#FFFFFF" stroke-miterlimit="4.111" d="M237.6,37c0,36.5,84.1,16.1,84.1,31.6c0,5.2-9.6,8.9-32.2,8.9
	c-21.1,0-36.4-2.5-50.8-7.9l-0.6,0.3V87c13.1,4.2,30.8,6.5,50.3,6.5c38,0,53.7-7.8,53.7-25.4c0-36-84.1-16.2-84.1-31.7
	c0-4.8,9.2-7.5,30.8-7.5c15.2,0,30.2,2.2,44.9,6.6l0.6-0.2V19.1c-14.1-4.2-29.3-6.2-46-6.2C255,12.9,237.6,21.2,237.6,37z"/>
<rect x="352.6" y="15.1" fill="none" stroke="#FFFFFF" stroke-miterlimit="4.111" width="20.3" height="77"/>
<path fill="none" stroke="#FFFFFF" stroke-miterlimit="4.111" d="M487.3,83V46.7H421V60h46v14c-7.6,2.2-15.5,3.5-23.6,3.5
	c-26.9,0-40.7-9.1-40.7-24.1c0-15.3,14.1-24.3,40.7-24.3c15.4,0,29.9,4.5,43.3,11.8l0.6-0.1V23.5C473.5,16.3,459,13,441.5,13
	c-36.8,0-59,14.8-59,40.2c0,25.4,22.3,40.2,60.2,40.2C458.7,93.5,472.2,90.8,487.3,83z"/>
<polygon fill="none" stroke="#FFFFFF" stroke-miterlimit="4.111" points="585.7,92.2 609.2,92.2 609.2,15.1 588.9,15.1 588.9,71.5 
	522.6,15.1 501.3,15.1 501.3,92.2 521.6,92.2 521.6,37.4 "/>
<path fill="none" stroke="#FFFFFF" stroke-miterlimit="4.111" d="M834.2,13c-36.8,0-59,14.8-59,40.2s22.3,40.2,60.2,40.2
	c16,0,29.4-2.7,44.6-10.5V65.7l-0.5-0.1c-13.4,7.3-28,11.8-43.3,11.8c-26.9,0-40.7-9.1-40.7-24.1c0-15.3,14.1-24.3,40.7-24.3
	c15.4,0,29.9,4.5,43.3,11.8l0.6-0.1V23.5C866.2,16.3,851.7,13,834.2,13z"/>
<path fill="none" stroke="#FFFFFF" stroke-miterlimit="4.111" d="M909.9,53.2c0-15.2,14.1-24.2,39.8-24.2c25.7,0,39.8,9.1,39.8,24.2
	s-14.1,24.2-39.8,24.2C924,77.5,909.9,68.4,909.9,53.2z M1009.8,53.2c0-25.4-22.3-40.2-60.1-40.2c-37.8,0-60.1,14.8-60.1,40.2
	s22.3,40.2,60.1,40.2C987.5,93.5,1009.8,78.6,1009.8,53.2z"/>
<path fill="none" stroke="#FFFFFF" stroke-miterlimit="4.111" d="M1019.4,92.2h55.4c33.9,0,55-14.2,55-38.5
	c0-24.3-20.9-38.5-55.7-38.5h-54.6V92.2z M1073.1,31.1c23.7,0,36.1,6.6,36.1,22.5c0,15.9-12.4,22.5-36.1,22.5h-33.4v-45H1073.1z"/>
<polygon fill="none" stroke="#FFFFFF" stroke-miterlimit="4.111" points="1139.3,92.2 1233.7,92.2 1233.7,76.5 1159.6,76.5 
	1159.6,61.2 1229,61.2 1229,46 1159.6,46 1159.6,30.8 1233.7,30.8 1233.7,15.1 1139.3,15.1 "/>
<g>
	<path fill="none" stroke="#FFFFFF" stroke-miterlimit="4.111" d="M714.1,66.6c5-4.1,8.5-14.8,8.8-21.9h15.3
		c0,10.2-4.4,22.2-13.1,30.7l20.4,16h-23.8l-7.1-6.4c-9.3,6.1-20.1,8.4-31.9,8.4c-27.5,0-36.4-12.2-36.4-22.4
		c0-6.7,4.3-14.3,15.1-18.6l8.4-3.5c-6.8-4.5-11.5-11-11.5-16.9c0-12.6,12.7-18.5,26-18.5c8.9,0,25.1,4.2,25.1,18.8
		c0,7.9-6.9,15-15.6,18.2L714.1,66.6z M680.6,57.6l-8.8,3.6c-4.7,1.9-7.7,5.9-7.7,9.8c0,7.4,8,11.7,18.9,11.7c7.9,0,16-2.5,20.4-6.1
		L680.6,57.6z M674.5,32c0,3.7,2.4,5.8,4.3,7.3l5.7,4.3l2.9-1.3c5.8-2.5,8.1-5.6,8.1-9.9c0-5.2-5-8.2-10.6-8.2
		C678.4,24.2,674.5,27.5,674.5,32z"/>
</g>
</svg>
